# xmcd
#
# Track frame offsets: 
#        150
#        13230
#        27615
#        44160
#        56673
#        73540
#        92005
#        116435
#        135148
#        150805
#        167970
#        183270
#        200905
#        214755
#        230915
#        245503
#        257600
#        283653
#        300373
#        325203
#
# Disc length: 4540 seconds
#
# Revision: 3
# Processed by: cddbd v1.5.2PL0 Copyright (c) Steve Scherf et al.
# Submitted via: ExactAudioCopy v1.0b3
#
DISCID=2011ba14
DTITLE=Various Artist - Start - The Best of British
DYEAR=1994
DGENRE=BritPop
TTITLE0=The Jam - Town Called Malice
TTITLE1=Police - Roxanne
TTITLE2=The Specials - Ghost Town
TTITLE3=Madness - Baggy Trousers
TTITLE4=Elvis Costello - Watching The Detectives
TTITLE5=Dexys Midnight Runners and The Emerald Express - Come On Eileen
TTITLE6=Duran Duran - Save A Prayer
TTITLE7=Tears For Fears - Everybody Wants To Rule The World
TTITLE8=The Stranglers - Golden Brown
TTITLE9=The Style Council - Long Hot Summer
TTITLE10=ABC - Poison Arrow
TTITLE11=Frankie Goes To Holywood - Relax
TTITLE12=Yazoo - Don't Go
TTITLE13=Orchestral Manoeuvres In The Dark - Souvenir
TTITLE14=Julian Cope - World Shut Your Mouth
TTITLE15=The Buzzcocks - Ever Fallen In Love
TTITLE16=Echo and The Bunnymen - The Killing Moon
TTITLE17=Go West - We Close Our Eyes
TTITLE18=Spandau Ballet - True
TTITLE19=The Bluebells - Young At Heart
EXTD=
EXTT0=
EXTT1=
EXTT2=
EXTT3=
EXTT4=
EXTT5=
EXTT6=
EXTT7=
EXTT8=
EXTT9=
EXTT10=
EXTT11=
EXTT12=
EXTT13=
EXTT14=
EXTT15=
EXTT16=
EXTT17=
EXTT18=
EXTT19=
PLAYORDER=
